<mxfile host="app.diagrams.net" modified="2023-04-13T06:04:33.490Z" agent="Mozilla/5.0 (X11; Linux x86_64) AppleWebKit/537.36 (KHTML, like Gecko) Chrome/111.0.0.0 Safari/537.36 Edg/111.0.1661.62" etag="9JP07iFas9pI1E5dBo1U" version="21.1.6" type="github">
  <diagram name="第 1 页" id="F79Sn6PVVhABqw2h7oyz">
    <mxGraphModel dx="1050" dy="577" grid="1" gridSize="10" guides="1" tooltips="1" connect="1" arrows="1" fold="1" page="1" pageScale="1" pageWidth="827" pageHeight="1169" math="0" shadow="0">
      <root>
        <mxCell id="0" />
        <mxCell id="1" parent="0" />
        <mxCell id="leW6F_dopoaonoRlpmbo-3" value="" style="edgeStyle=orthogonalEdgeStyle;rounded=0;orthogonalLoop=1;jettySize=auto;html=1;" edge="1" parent="1" source="leW6F_dopoaonoRlpmbo-1" target="leW6F_dopoaonoRlpmbo-2">
          <mxGeometry relative="1" as="geometry" />
        </mxCell>
        <mxCell id="leW6F_dopoaonoRlpmbo-1" value="LoginPage" style="rounded=0;whiteSpace=wrap;html=1;" vertex="1" parent="1">
          <mxGeometry x="160" y="50" width="130" height="30" as="geometry" />
        </mxCell>
        <mxCell id="leW6F_dopoaonoRlpmbo-5" value="" style="edgeStyle=orthogonalEdgeStyle;rounded=0;orthogonalLoop=1;jettySize=auto;html=1;" edge="1" parent="1" source="leW6F_dopoaonoRlpmbo-2" target="leW6F_dopoaonoRlpmbo-4">
          <mxGeometry relative="1" as="geometry" />
        </mxCell>
        <mxCell id="leW6F_dopoaonoRlpmbo-6" value="" style="edgeStyle=orthogonalEdgeStyle;rounded=0;orthogonalLoop=1;jettySize=auto;html=1;" edge="1" parent="1" source="leW6F_dopoaonoRlpmbo-2" target="leW6F_dopoaonoRlpmbo-4">
          <mxGeometry relative="1" as="geometry" />
        </mxCell>
        <mxCell id="leW6F_dopoaonoRlpmbo-8" value="" style="edgeStyle=orthogonalEdgeStyle;rounded=0;orthogonalLoop=1;jettySize=auto;html=1;" edge="1" parent="1" source="leW6F_dopoaonoRlpmbo-2" target="leW6F_dopoaonoRlpmbo-7">
          <mxGeometry relative="1" as="geometry">
            <Array as="points">
              <mxPoint x="290" y="200" />
              <mxPoint x="120" y="200" />
            </Array>
          </mxGeometry>
        </mxCell>
        <mxCell id="leW6F_dopoaonoRlpmbo-10" value="" style="edgeStyle=orthogonalEdgeStyle;rounded=0;orthogonalLoop=1;jettySize=auto;html=1;" edge="1" parent="1" source="leW6F_dopoaonoRlpmbo-2" target="leW6F_dopoaonoRlpmbo-9">
          <mxGeometry relative="1" as="geometry" />
        </mxCell>
        <mxCell id="leW6F_dopoaonoRlpmbo-2" value="LoginLayout" style="whiteSpace=wrap;html=1;rounded=0;" vertex="1" parent="1">
          <mxGeometry x="120" y="130" width="340" height="40" as="geometry" />
        </mxCell>
        <mxCell id="leW6F_dopoaonoRlpmbo-4" value="LoginForm" style="whiteSpace=wrap;html=1;rounded=0;" vertex="1" parent="1">
          <mxGeometry x="220" y="240" width="120" height="60" as="geometry" />
        </mxCell>
        <mxCell id="leW6F_dopoaonoRlpmbo-7" value="LoginPicture" style="whiteSpace=wrap;html=1;rounded=0;" vertex="1" parent="1">
          <mxGeometry x="60" y="240" width="120" height="60" as="geometry" />
        </mxCell>
        <mxCell id="leW6F_dopoaonoRlpmbo-9" value="ModelTestError" style="whiteSpace=wrap;html=1;rounded=0;" vertex="1" parent="1">
          <mxGeometry x="370" y="240" width="120" height="60" as="geometry" />
        </mxCell>
      </root>
    </mxGraphModel>
  </diagram>
</mxfile>
